<?xml version="1.0" encoding="utf-8"?>
<!-- Generator: Adobe Illustrator 17.0.0, SVG Export Plug-In . SVG Version: 6.00 Build 0)  -->
<!DOCTYPE svg PUBLIC "-//W3C//DTD SVG 1.1//EN" "http://www.w3.org/Graphics/SVG/1.1/DTD/svg11.dtd">
<svg version="1.1" id="Layer_1" xmlns="http://www.w3.org/2000/svg" xmlns:xlink="http://www.w3.org/1999/xlink" x="0px" y="0px"
	 width="100px" height="100px" viewBox="0 0 100 100" enable-background="new 0 0 100 100" xml:space="preserve">
<g transform="matrix( 1, 0, 0, 1, 0,0) ">
	<g>
		<g id="Layer1_0_FILL">
			<path fill="#FF0000" d="M85.3,85.35C95.1,75.583,100,63.8,100,50s-4.9-25.583-14.7-35.35C75.567,4.883,63.8,0,50,0
				C36.167,0,24.367,4.883,14.6,14.65C4.867,24.417,0,36.2,0,50s4.867,25.583,14.6,35.35C24.367,95.117,36.167,100,50,100
				C63.8,100,75.567,95.117,85.3,85.35z"/>
		</g>
	</g>
</g>
<g transform="matrix( 1, 0, 0, 1, 36.3,22.65) ">
	<g>
		<defs>
			<rect id="SVGID_1_" x="-2" y="-2" width="31.45" height="58.75"/>
		</defs>
		<clipPath id="SVGID_2_">
			<use xlink:href="#SVGID_1_"  overflow="visible"/>
		</clipPath>
		<text transform="matrix(1 0 0 1 -1.120703e-05 44.35)" font-family="'ArialMT'" font-size="49">4</text>
	</g>
</g>
</svg>
